P1
6 4
010000
111100
110100
010111

